<svg height="511pt" viewBox="0 1 511 511.99899" width="511pt" xmlns="http://www.w3.org/2000/svg"><path d="m404.609375 424.375h-206.960937c-32.859376 0-61.054688-23.453125-67.039063-55.761719l-56.765625-306.375c-1.511719-8.15625-8.632812-14.078125-16.929688-14.078125h-28.535156c-11.199218 0-20.277344-9.078125-20.277344-20.277344 0-11.199218 9.078126-20.277343 20.277344-20.277343h28.535156c27.84375 0 51.730469 19.871093 56.804688 47.246093l56.765625 306.375c2.425781 13.09375 13.851563 22.59375 27.164063 22.59375h206.960937c11.199219 0 20.277344 9.078126 20.277344 20.277344 0 11.199219-9.078125 20.277344-20.277344 20.277344zm0 0" fill="#e6e6e6"/><path d="m149.105469 368.613281-56.765625-306.375c-1.511719-8.15625-8.628906-14.078125-16.929688-14.078125h-18.496094c8.300782 0 15.417969 5.921875 16.929688 14.078125l56.765625 306.375c5.984375 32.3125 34.179687 55.761719 67.039063 55.761719h18.5c-32.859376 0-61.054688-23.453125-67.042969-55.761719zm0 0" fill="#ccc"/><path d="m122.941406 104.667969h368.167969c7.238281 0 13.105469-5.867188 13.105469-13.101563 0-7.238281-5.867188-13.105468-13.105469-13.105468h-373.015625" fill="#f7526e"/><path d="m115.085938 62.238281h-41.242188c-1.511719-8.160156-8.628906-14.082031-16.921875-14.082031h-28.542969c-11.191406 0-20.277344-9.074219-20.277344-20.277344 0-11.191406 9.085938-20.277344 20.277344-20.277344h28.542969c27.839844 0 51.726563 19.871094 56.796875 47.246094zm0 0" fill="#f7526e"/><path d="m26.601562 27.882812c0-11.199218 9.078126-20.277343 20.277344-20.277343h-18.5c-11.199218 0-20.277344 9.078125-20.277344 20.277343 0 11.199219 9.078126 20.277344 20.277344 20.277344h18.5c-11.199218 0-20.277344-9.078125-20.277344-20.277344zm0 0" fill="#d1244a"/><path d="m237.800781 474.417969c0 16.554687-13.421875 29.976562-29.980469 29.976562-16.554687 0-29.976562-13.421875-29.976562-29.976562 0-16.558594 13.421875-29.980469 29.976562-29.980469 16.558594 0 29.980469 13.421875 29.980469 29.980469zm0 0" fill="#2e5968"/><path d="m395.308594 474.417969c0 16.554687-13.421875 29.976562-29.976563 29.976562-16.558593 0-29.980469-13.421875-29.980469-29.976562 0-16.558594 13.421876-29.980469 29.980469-29.980469 16.554688 0 29.976563 13.421875 29.976563 29.980469zm0 0" fill="#2e5968"/><path d="m207.820312 436.835938c-20.722656 0-37.582031 16.859374-37.582031 37.582031 0 20.722656 16.859375 37.582031 37.582031 37.582031 20.722657 0 37.582032-16.859375 37.582032-37.582031 0-20.722657-16.859375-37.582031-37.582032-37.582031zm0 59.957031c-12.335937 0-22.371093-10.039063-22.371093-22.375 0-12.335938 10.035156-22.375 22.371093-22.375 12.339844 0 22.375 10.039062 22.375 22.375 0 12.335937-10.039062 22.375-22.375 22.375zm0 0"/><path d="m365.332031 436.835938c-20.722656 0-37.582031 16.859374-37.582031 37.582031 0 20.722656 16.859375 37.582031 37.582031 37.582031 20.722657 0 37.582031-16.859375 37.582031-37.582031 0-20.722657-16.859374-37.582031-37.582031-37.582031zm0 59.957031c-12.339843 0-22.375-10.039063-22.375-22.375 0-12.335938 10.035157-22.375 22.375-22.375 12.335938 0 22.371094 10.039062 22.371094 22.375 0 12.335937-10.035156 22.375-22.371094 22.375zm0 0"/><path d="m491.113281 70.855469h-69.410156c-4.203125 0-7.605469 3.40625-7.605469 7.605469 0 4.199218 3.402344 7.605468 7.605469 7.605468h69.410156c3.03125 0 5.5 2.464844 5.5 5.5 0 3.03125-2.46875 5.5-5.5 5.5h-361.839843l-2.035157-11h264.046875c4.199219 0 7.601563-3.40625 7.601563-7.605468 0-4.199219-3.402344-7.605469-7.601563-7.605469h-266.867187l-3.222657-17.390625c-5.738281-30.980469-32.773437-53.464844-64.28125-53.464844h-28.535156c-15.371094 0-27.878906 12.507812-27.878906 27.882812 0 15.371094 12.507812 27.878907 27.878906 27.878907h28.535156c4.632813 0 8.609376 3.308593 9.453126 7.863281l.007812.042969c.007812.050781.015625.101562.027344.148437l36.785156 198.53125c.765625 4.128906 4.726562 6.851563 8.859375 6.089844 4.132813-.765625 6.859375-4.734375 6.09375-8.863281l-35.152344-189.730469h25.777344l54.242187 292.765625c3.09375 16.695313 17.664063 28.8125 34.644532 28.8125h206.957031c6.988281 0 12.675781 5.6875 12.675781 12.675781 0 6.988282-5.6875 12.671875-12.675781 12.671875h-206.960937c-29.191407 0-54.242188-20.835937-59.5625-49.542969l-13.792969-74.4375c-.765625-4.128906-4.730469-6.855468-8.859375-6.089843-4.132813.761719-6.859375 4.730469-6.09375 8.859375l13.792968 74.441406c6.65625 35.914062 37.992188 61.976562 74.515626 61.976562h206.960937c15.375 0 27.882813-12.503906 27.882813-27.878906s-12.507813-27.882812-27.882813-27.882812h-206.960937c-9.648438 0-17.929688-6.886719-19.6875-16.375l-5.292969-28.5625h246.023437c16.453125 0 30.570313-11.742188 33.570313-27.921875 0 0 16.238281-87.65625 16.242187-87.664063l19.160156-103.417968h3.445313c11.417969 0 20.707031-9.289063 20.707031-20.707032.003906-11.421875-9.285156-20.710937-20.703125-20.710937zm-101.792969 135.714843h-46.214843l3.648437-94.292968h52.90625zm-257.226562-94.292968h56.894531l10.339844 94.292968h-49.765625zm72.191406 0h52.90625l3.648438 94.292968h-46.214844zm68.125 0h59.125l-3.648437 94.292968h-51.828125zm-215.496094-71.722656h-28.535156c-6.988281 0-12.671875-5.683594-12.671875-12.671876 0-6.988281 5.6875-12.675781 12.671875-12.675781h28.535156c23.632813 0 43.972657 16.488281 48.996094 39.429688h-26.617187c-4.046875-8.4375-12.652344-14.082031-22.378907-14.082031zm95.46875 181.222656h48.613282l10.339844 94.292968h-41.484376zm63.914063 0h45.132813l3.648437 94.292968h-38.441406zm64 94.292968-3.648437-94.292968h50.652343l-3.652343 94.292968zm58.574219 0 3.648437-94.292968h45.132813l-10.339844 94.292968zm98.4375-15.484374c-1.664063 8.972656-9.492188 15.484374-18.613282 15.484374h-26.085937l10.34375-94.292968h48.957031zm17.417968-94.015626h-50.105468l10.339844-94.292968h57.238281zm0 0"/><path d="m372.351562 471.503906c-2.566406-6.089844-11.492187-6.128906-14.042968 0-1.269532 3.050782-.363282 6.695313 2.199218 8.792969 2.4375 1.992187 5.945313 2.261719 8.664063.679687 3.242187-1.890624 4.613281-6.011718 3.179687-9.472656zm0 0"/><path d="m214.835938 471.515625c-1.128907-2.878906-4.132813-4.777344-7.203126-4.695313-3.046874.082032-5.8125 2.023438-6.902343 4.867188-1.066407 2.773438-.394531 6.007812 1.714843 8.109375 2.394532 2.382813 6.179688 2.894531 9.121094 1.234375 3.285156-1.859375 4.742188-6.023438 3.269532-9.515625zm0 0"/></svg>